<svg width="22" height="22" fill="none" xmlns="http://www.w3.org/2000/svg"><g clip-path="url(#clip0_1_728)"><rect width="22" height="22" rx="11" fill="#EA4335"/><path d="M3.671 11.01c-.146-3.86 3.234-7.426 7.097-7.472 1.968-.168 3.884.597 5.374 1.844a33.977 33.977 0 01-1.897 1.958c-1.312-.797-2.891-1.404-4.424-.865-2.473.704-3.97 3.623-3.055 6.042.757 2.527 3.83 3.913 6.238 2.852 1.247-.447 2.07-1.597 2.43-2.834-1.429-.028-2.858-.01-4.287-.05-.004-.85-.008-1.697-.004-2.547 2.383-.004 4.77-.011 7.157.01.146 2.084-.16 4.313-1.515 5.985-1.855 2.387-5.281 3.088-8.069 2.151-2.958-.971-5.11-3.951-5.045-7.074z" fill="#FEFEFE"/></g><defs><clipPath id="clip0_1_728"><path fill="#fff" d="M0 0h22v22H0z"/></clipPath></defs></svg>