<svg width="23" height="22" fill="none" xmlns="http://www.w3.org/2000/svg"><g clip-path="url(#clip0_1_737)"><rect x=".5" width="22" height="22" rx="11" fill="#1DA1F2"/><path d="M16.891 8.622v.344c0 3.558-2.715 7.666-7.665 7.666a7.74 7.74 0 01-4.143-1.203c.207.017.43.034.636.034 1.255 0 2.424-.43 3.352-1.151a2.667 2.667 0 01-2.51-1.874 2.496 2.496 0 001.22-.052 2.675 2.675 0 01-2.165-2.63v-.034c.361.207.774.327 1.22.344a2.7 2.7 0 01-1.203-2.251c0-.499.138-.963.361-1.358a7.666 7.666 0 005.552 2.819 2.439 2.439 0 01-.069-.62 2.692 2.692 0 012.699-2.698c.773 0 1.478.327 1.959.843a5.476 5.476 0 001.719-.654 2.778 2.778 0 01-1.186 1.496 5.161 5.161 0 001.547-.43 4.924 4.924 0 01-1.324 1.41z" fill="#FEFEFE"/></g><defs><clipPath id="clip0_1_737"><path fill="#fff" transform="translate(.5)" d="M0 0h22v22H0z"/></clipPath></defs></svg>